<?xml version="1.0" encoding="UTF-8" standalone="no"?> <svg width="128" height="128" viewBox="0 0 128 128" fill="none" xmlns="http://www.w3.org/2000/svg">
<g filter="url(#filter0_d)">
<g filter="url(#filter1_i)">
<path d="M112 56C112 78.0914 94.0914 96 72 96C49.9086 96 32 78.0914 32 56C32 33.9086 49.9086 16 72 16C94.0914 16 112 33.9086 112 56Z" fill="#FF0000"/>
</g>
<g filter="url(#filter2_ii)">
<path fill-rule="evenodd" clip-rule="evenodd" d="M56 112C78.0914 112 96 94.0914 96 72C96 49.9086 78.0914 32 56 32C33.9086 32 16 49.9086 16 72C16 94.0914 33.9086 112 56 112ZM36.4353 55.0194C40.3575 54 55.9845 54 55.9845 54C55.9845 54 71.6425 54 75.5646 55.0813C77.6956 55.6373 79.3939 57.3361 79.9498 59.4676C81.0308 63.3908 80.9999 71.5464 80.9999 71.5464C80.9999 71.5464 80.9999 79.6709 79.9498 83.5633C79.3939 85.7257 77.6956 87.3936 75.5646 87.9806C71.6425 89 55.9845 89 55.9845 89C55.9845 89 40.3883 89 36.4353 87.9497C34.3043 87.3627 32.606 85.6639 32.0192 83.5324C31 79.6709 31 71.5155 31 71.5155C31 71.5155 31 63.3908 32.0192 59.4676C32.606 57.3361 34.3352 55.6064 36.4353 55.0194ZM64.0143 71.5155L51.0122 64.009V78.991L64.0143 71.5155Z" fill="white" fill-opacity="0.4"/>
</g>
</g>
<defs>
<filter id="filter0_d" x="12" y="12" width="112" height="112" filterUnits="userSpaceOnUse" color-interpolation-filters="sRGB">
<feFlood flood-opacity="0" result="BackgroundImageFix"/>
<feColorMatrix in="SourceAlpha" type="matrix" values="0 0 0 0 0 0 0 0 0 0 0 0 0 0 0 0 0 0 127 0"/>
<feOffset dx="4" dy="4"/>
<feGaussianBlur stdDeviation="4"/>
<feColorMatrix type="matrix" values="0 0 0 0 1 0 0 0 0 0 0 0 0 0 0 0 0 0 0.4 0"/>
<feBlend mode="normal" in2="BackgroundImageFix" result="effect1_dropShadow"/>
<feBlend mode="normal" in="SourceGraphic" in2="effect1_dropShadow" result="shape"/>
</filter>
<filter id="filter1_i" x="32" y="16" width="80" height="80" filterUnits="userSpaceOnUse" color-interpolation-filters="sRGB">
<feFlood flood-opacity="0" result="BackgroundImageFix"/>
<feBlend mode="normal" in="SourceGraphic" in2="BackgroundImageFix" result="shape"/>
<feColorMatrix in="SourceAlpha" type="matrix" values="0 0 0 0 0 0 0 0 0 0 0 0 0 0 0 0 0 0 127 0" result="hardAlpha"/>
<feOffset/>
<feGaussianBlur stdDeviation="4"/>
<feComposite in2="hardAlpha" operator="arithmetic" k2="-1" k3="1"/>
<feColorMatrix type="matrix" values="0 0 0 0 1 0 0 0 0 1 0 0 0 0 1 0 0 0 0.8 0"/>
<feBlend mode="normal" in2="shape" result="effect1_innerShadow"/>
</filter>
<filter id="filter2_ii" x="16" y="32" width="80" height="84" filterUnits="userSpaceOnUse" color-interpolation-filters="sRGB">
<feFlood flood-opacity="0" result="BackgroundImageFix"/>
<feBlend mode="normal" in="SourceGraphic" in2="BackgroundImageFix" result="shape"/>
<feColorMatrix in="SourceAlpha" type="matrix" values="0 0 0 0 0 0 0 0 0 0 0 0 0 0 0 0 0 0 127 0" result="hardAlpha"/>
<feOffset/>
<feGaussianBlur stdDeviation="2"/>
<feComposite in2="hardAlpha" operator="arithmetic" k2="-1" k3="1"/>
<feColorMatrix type="matrix" values="0 0 0 0 1 0 0 0 0 1 0 0 0 0 1 0 0 0 1 0"/>
<feBlend mode="normal" in2="shape" result="effect1_innerShadow"/>
<feColorMatrix in="SourceAlpha" type="matrix" values="0 0 0 0 0 0 0 0 0 0 0 0 0 0 0 0 0 0 127 0" result="hardAlpha"/>
<feOffset dy="4"/>
<feGaussianBlur stdDeviation="4"/>
<feComposite in2="hardAlpha" operator="arithmetic" k2="-1" k3="1"/>
<feColorMatrix type="matrix" values="0 0 0 0 1 0 0 0 0 1 0 0 0 0 1 0 0 0 1 0"/>
<feBlend mode="normal" in2="effect1_innerShadow" result="effect2_innerShadow"/>
</filter>
</defs>
</svg>
