<?xml version="1.0" encoding="UTF-8" standalone="no"?> <svg width="128" height="128" viewBox="0 0 128 128" fill="none" xmlns="http://www.w3.org/2000/svg">
<g filter="url(#filter0_d)">
<g filter="url(#filter1_i)">
<path d="M112 56C112 78.0914 94.0914 96 72 96C49.9086 96 32 78.0914 32 56C32 33.9086 49.9086 16 72 16C94.0914 16 112 33.9086 112 56Z" fill="url(#paint0_linear)"/>
</g>
<g filter="url(#filter2_ii)">
<path fill-rule="evenodd" clip-rule="evenodd" d="M56 112C78.0914 112 96 94.0914 96 72C96 49.9086 78.0914 32 56 32C33.9086 32 16 49.9086 16 72C16 94.0914 33.9086 112 56 112ZM33 95L36.3756 82.675C34.2936 79.0682 33.1983 74.976 33.1996 70.7841C33.205 57.6695 43.8776 47 56.9926 47C63.357 47.0031 69.3305 49.4799 73.8233 53.9757C78.3147 58.4716 80.7878 64.4474 80.7856 70.8033C80.7798 83.917 70.1054 94.5882 56.9926 94.5882H56.9824C53.0008 94.5866 49.0882 93.5878 45.6128 91.6926L33 95ZM57.0003 51.0177C46.0919 51.0177 37.2209 59.8855 37.2169 70.7853C37.2153 74.5205 38.2606 78.1586 40.2401 81.3064L40.7106 82.0542L38.7124 89.349L46.1971 87.3865L46.9198 87.8148C49.9554 89.6164 53.4357 90.5691 56.9851 90.5709H56.9926C67.8924 90.5709 76.7635 81.7022 76.7679 70.8014C76.7698 65.519 74.715 60.5517 70.9811 56.8151C67.2473 53.0786 62.2826 51.0199 57.0003 51.0177ZM49.7085 59.8134C50.1319 59.8307 50.6007 59.8508 51.0463 60.8405C51.3509 61.5181 51.8639 62.7821 52.2722 63.7882C52.5723 64.5275 52.8158 65.1276 52.8787 65.2535C53.0275 65.5507 53.1264 65.8979 52.9281 66.2949C52.8988 66.3536 52.8717 66.4091 52.8457 66.4621C52.6965 66.7667 52.587 66.9903 52.3346 67.286C52.2346 67.4026 52.1312 67.5283 52.0279 67.6539L52.0278 67.6541H52.0277C51.8236 67.9024 51.6197 68.1505 51.4425 68.3274C51.1443 68.6237 50.8346 68.9454 51.1813 69.5403C51.5285 70.1353 52.7214 72.0813 54.4887 73.657C56.3872 75.3498 58.0366 76.0658 58.8741 76.4293C59.0386 76.5007 59.1717 76.5585 59.2693 76.6074C59.8642 76.9047 60.2109 76.8552 60.5576 76.4582C60.9047 76.0616 62.0433 74.7229 62.4395 74.128C62.8361 73.5331 63.2322 73.632 63.7772 73.8303C64.3222 74.0286 67.245 75.4671 67.8395 75.7643C67.9553 75.8222 68.0636 75.8744 68.164 75.9229C68.5793 76.1231 68.8595 76.2583 68.9794 76.4582C69.1278 76.7068 69.1278 77.8962 68.6322 79.2843C68.1371 80.6724 65.7099 82.0115 64.6199 82.1104C64.5149 82.1199 64.4105 82.1322 64.3031 82.1448C63.2956 82.2632 62.0241 82.4126 57.4859 80.6229C51.8999 78.4204 48.2174 72.9612 47.4575 71.8348V71.8347L47.457 71.834C47.3951 71.7423 47.3527 71.6794 47.3303 71.6495L47.323 71.6398C47.0006 71.2086 44.903 68.4036 44.903 65.5012C44.903 62.7635 46.2486 61.3284 46.8678 60.6681C46.9102 60.6229 46.9491 60.5814 46.984 60.5433C47.5286 59.9484 48.1725 59.7995 48.5691 59.7995H48.6334H48.6336C49.0082 59.7995 49.3807 59.7994 49.7085 59.8134Z" fill="white" fill-opacity="0.4"/>
</g>
</g>
<defs>
<filter id="filter0_d" x="12" y="12" width="112" height="112" filterUnits="userSpaceOnUse" color-interpolation-filters="sRGB">
<feFlood flood-opacity="0" result="BackgroundImageFix"/>
<feColorMatrix in="SourceAlpha" type="matrix" values="0 0 0 0 0 0 0 0 0 0 0 0 0 0 0 0 0 0 127 0"/>
<feOffset dx="4" dy="4"/>
<feGaussianBlur stdDeviation="4"/>
<feColorMatrix type="matrix" values="0 0 0 0 0.313726 0 0 0 0 0.803922 0 0 0 0 0.368627 0 0 0 0.4 0"/>
<feBlend mode="normal" in2="BackgroundImageFix" result="effect1_dropShadow"/>
<feBlend mode="normal" in="SourceGraphic" in2="effect1_dropShadow" result="shape"/>
</filter>
<filter id="filter1_i" x="32" y="16" width="80" height="80" filterUnits="userSpaceOnUse" color-interpolation-filters="sRGB">
<feFlood flood-opacity="0" result="BackgroundImageFix"/>
<feBlend mode="normal" in="SourceGraphic" in2="BackgroundImageFix" result="shape"/>
<feColorMatrix in="SourceAlpha" type="matrix" values="0 0 0 0 0 0 0 0 0 0 0 0 0 0 0 0 0 0 127 0" result="hardAlpha"/>
<feOffset/>
<feGaussianBlur stdDeviation="4"/>
<feComposite in2="hardAlpha" operator="arithmetic" k2="-1" k3="1"/>
<feColorMatrix type="matrix" values="0 0 0 0 1 0 0 0 0 1 0 0 0 0 1 0 0 0 0.8 0"/>
<feBlend mode="normal" in2="shape" result="effect1_innerShadow"/>
</filter>
<filter id="filter2_ii" x="16" y="32" width="80" height="84" filterUnits="userSpaceOnUse" color-interpolation-filters="sRGB">
<feFlood flood-opacity="0" result="BackgroundImageFix"/>
<feBlend mode="normal" in="SourceGraphic" in2="BackgroundImageFix" result="shape"/>
<feColorMatrix in="SourceAlpha" type="matrix" values="0 0 0 0 0 0 0 0 0 0 0 0 0 0 0 0 0 0 127 0" result="hardAlpha"/>
<feOffset/>
<feGaussianBlur stdDeviation="2"/>
<feComposite in2="hardAlpha" operator="arithmetic" k2="-1" k3="1"/>
<feColorMatrix type="matrix" values="0 0 0 0 1 0 0 0 0 1 0 0 0 0 1 0 0 0 1 0"/>
<feBlend mode="normal" in2="shape" result="effect1_innerShadow"/>
<feColorMatrix in="SourceAlpha" type="matrix" values="0 0 0 0 0 0 0 0 0 0 0 0 0 0 0 0 0 0 127 0" result="hardAlpha"/>
<feOffset dy="4"/>
<feGaussianBlur stdDeviation="4"/>
<feComposite in2="hardAlpha" operator="arithmetic" k2="-1" k3="1"/>
<feColorMatrix type="matrix" values="0 0 0 0 1 0 0 0 0 1 0 0 0 0 1 0 0 0 1 0"/>
<feBlend mode="normal" in2="effect1_innerShadow" result="effect2_innerShadow"/>
</filter>
<linearGradient id="paint0_linear" x1="71.1856" y1="20.8009" x2="71.5913" y2="89.1655" gradientUnits="userSpaceOnUse">
<stop stop-color="#57D163"/>
<stop offset="1" stop-color="#23B33A"/>
</linearGradient>
</defs>
</svg>
