<?xml version="1.0" encoding="UTF-8" standalone="no"?> <svg width="128" height="128" viewBox="0 0 128 128" fill="none" xmlns="http://www.w3.org/2000/svg">
<g filter="url(#filter0_d)">
<g filter="url(#filter1_i)">
<path d="M112 56C112 78.0914 94.0914 96 72 96C49.9086 96 32 78.0914 32 56C32 33.9086 49.9086 16 72 16C94.0914 16 112 33.9086 112 56Z" fill="url(#paint0_linear)"/>
</g>
<g filter="url(#filter2_ii)">
<path fill-rule="evenodd" clip-rule="evenodd" d="M56 112C78.0914 112 96 94.0914 96 72C96 49.9086 78.0914 32 56 32C33.9086 32 16 49.9086 16 72C16 94.0914 33.9086 112 56 112ZM32 62.2995C32 54.4147 38.4147 48 46.2995 48H65.7005C73.5852 48 79.9999 54.4147 80 62.2995V81.7005C80 89.5853 73.5853 96 65.7005 96H46.2995C38.4147 96 32 89.5853 32 81.7005V62.2995ZM65.7005 91.1712C70.931 91.1712 75.1712 86.931 75.1712 81.7005V62.2995C75.1712 57.0689 70.931 52.8288 65.7005 52.8288H46.2995C41.069 52.8288 36.8288 57.0689 36.8288 62.2995V81.7005C36.8288 86.931 41.069 91.1712 46.2995 91.1712H65.7005ZM71.4133 59.6787C71.4133 61.3216 70.0815 62.6535 68.4386 62.6535C66.7956 62.6535 65.4638 61.3216 65.4638 59.6787C65.4638 58.0358 66.7956 56.7039 68.4386 56.7039C70.0815 56.7039 71.4133 58.0358 71.4133 59.6787ZM56 59.5855C49.1546 59.5855 43.5855 65.1546 43.5855 71.9999C43.5855 78.8452 49.1546 84.4144 56 84.4144C62.8454 84.4144 68.4145 78.8453 68.4145 71.9999C68.4145 65.1545 62.8454 59.5855 56 59.5855ZM56 79.5857C51.8105 79.5857 48.4143 76.1895 48.4143 72C48.4143 67.8105 51.8106 64.4143 56 64.4143C60.1895 64.4143 63.5857 67.8105 63.5857 72C63.5857 76.1894 60.1894 79.5857 56 79.5857Z" fill="white" fill-opacity="0.4"/>
</g>
</g>
<defs>
<filter id="filter0_d" x="12" y="12" width="112" height="112" filterUnits="userSpaceOnUse" color-interpolation-filters="sRGB">
<feFlood flood-opacity="0" result="BackgroundImageFix"/>
<feColorMatrix in="SourceAlpha" type="matrix" values="0 0 0 0 0 0 0 0 0 0 0 0 0 0 0 0 0 0 127 0"/>
<feOffset dx="4" dy="4"/>
<feGaussianBlur stdDeviation="4"/>
<feColorMatrix type="matrix" values="0 0 0 0 0.991667 0 0 0 0 0.501783 0 0 0 0 0.347083 0 0 0 0.4 0"/>
<feBlend mode="normal" in2="BackgroundImageFix" result="effect1_dropShadow"/>
<feBlend mode="normal" in="SourceGraphic" in2="effect1_dropShadow" result="shape"/>
</filter>
<filter id="filter1_i" x="32" y="16" width="80" height="80" filterUnits="userSpaceOnUse" color-interpolation-filters="sRGB">
<feFlood flood-opacity="0" result="BackgroundImageFix"/>
<feBlend mode="normal" in="SourceGraphic" in2="BackgroundImageFix" result="shape"/>
<feColorMatrix in="SourceAlpha" type="matrix" values="0 0 0 0 0 0 0 0 0 0 0 0 0 0 0 0 0 0 127 0" result="hardAlpha"/>
<feOffset/>
<feGaussianBlur stdDeviation="4"/>
<feComposite in2="hardAlpha" operator="arithmetic" k2="-1" k3="1"/>
<feColorMatrix type="matrix" values="0 0 0 0 1 0 0 0 0 1 0 0 0 0 1 0 0 0 0.8 0"/>
<feBlend mode="normal" in2="shape" result="effect1_innerShadow"/>
</filter>
<filter id="filter2_ii" x="16" y="32" width="80" height="84" filterUnits="userSpaceOnUse" color-interpolation-filters="sRGB">
<feFlood flood-opacity="0" result="BackgroundImageFix"/>
<feBlend mode="normal" in="SourceGraphic" in2="BackgroundImageFix" result="shape"/>
<feColorMatrix in="SourceAlpha" type="matrix" values="0 0 0 0 0 0 0 0 0 0 0 0 0 0 0 0 0 0 127 0" result="hardAlpha"/>
<feOffset/>
<feGaussianBlur stdDeviation="2"/>
<feComposite in2="hardAlpha" operator="arithmetic" k2="-1" k3="1"/>
<feColorMatrix type="matrix" values="0 0 0 0 1 0 0 0 0 1 0 0 0 0 1 0 0 0 1 0"/>
<feBlend mode="normal" in2="shape" result="effect1_innerShadow"/>
<feColorMatrix in="SourceAlpha" type="matrix" values="0 0 0 0 0 0 0 0 0 0 0 0 0 0 0 0 0 0 127 0" result="hardAlpha"/>
<feOffset dy="4"/>
<feGaussianBlur stdDeviation="4"/>
<feComposite in2="hardAlpha" operator="arithmetic" k2="-1" k3="1"/>
<feColorMatrix type="matrix" values="0 0 0 0 1 0 0 0 0 1 0 0 0 0 1 0 0 0 1 0"/>
<feBlend mode="normal" in2="effect1_innerShadow" result="effect2_innerShadow"/>
</filter>
<linearGradient id="paint0_linear" x1="72" y1="95.7671" x2="72" y2="16.6214" gradientUnits="userSpaceOnUse">
<stop stop-color="#E09B3D"/>
<stop offset="0.3" stop-color="#C74C4D"/>
<stop offset="0.6" stop-color="#C21975"/>
<stop offset="1" stop-color="#7024C4"/>
</linearGradient>
</defs>
</svg>
