<svg xmlns="http://www.w3.org/2000/svg" viewBox="0 0 24 24"><path d="M20,16.4A3.6,3.6,0,0,1,16.4,20H5.6a3.6,3.6,0,1,1,1.2-6.981,4.48,4.48,0,0,1,8.4,0A3.564,3.564,0,0,1,20,16.4Zm-2.535-5.522c.016.016.038.022.055.037a5.488,5.488,0,0,1,.8.228.985.985,0,0,0,.561-.265,1,1,0,0,0,0-1.414A4.991,4.991,0,0,0,13.213,8.5a6.568,6.568,0,0,1,2.368,1.526A2.97,2.97,0,0,1,17.465,10.877ZM8.979,6.633a8.9,8.9,0,0,0-1.9,2.81,6.483,6.483,0,0,1,3.232-1.3c.029-.029.05-.063.079-.092a7.008,7.008,0,0,1,9.9,0,1,1,0,0,0,1.414-1.414A9.007,9.007,0,0,0,8.979,6.633Z"/></svg>