<?xml version="1.0" encoding="UTF-8"?>
<!DOCTYPE svg PUBLIC "-//W3C//DTD SVG 1.1//EN" "http://www.w3.org/Graphics/SVG/1.1/DTD/svg11.dtd">
<!-- Creator: CorelDRAW -->
<svg xmlns="http://www.w3.org/2000/svg" xml:space="preserve" width="2048px" height="2048px" style="shape-rendering:geometricPrecision; text-rendering:geometricPrecision; image-rendering:optimizeQuality; fill-rule:evenodd; clip-rule:evenodd"
viewBox="0 0 2048 2048"
 xmlns:xlink="http://www.w3.org/1999/xlink">
 <defs>
  <style type="text/css">
   <![CDATA[
    .fil2 {fill:none}
    .fil0 {fill:#212121;fill-rule:nonzero}
    .fil1 {fill:#66BB6A;fill-rule:nonzero}
   ]]>
  </style>
 </defs>
 <g id="Layer_x0020_1">
  <metadata id="CorelCorpID_0Corel-Layer"/>
  <path class="fil0" d="M274.905 589.238l494.333 -145.538 -0.0165354 -0.0578741c12.7146,-3.74292 26.0587,3.53032 29.8016,16.2449 0.714567,2.42599 1.02638,4.87559 0.976772,7.27678l0 968.142c0,11.5063 -8.09764,21.1205 -18.9059,23.4567l-494.333 145.538 0.0165354 0.0578741c-12.7146,3.74292 -26.0587,-3.53032 -29.8016,-16.2449 -0.714567,-2.42599 -1.02638,-4.87559 -0.976772,-7.27678l0 -968.142c0,-11.5063 8.09764,-21.1205 18.9059,-23.4567zm477.095 -90.5505l-448.001 131.897 0 918.728 448.001 -131.897 0 -918.728z"/>
  <path class="fil0" d="M1248 630.585l-448.001 -131.897 0 918.728 448.001 131.897 0 -918.728zm-465.239 -186.885l494.333 145.538c10.8083,2.33622 18.9059,11.9504 18.9059,23.4567l0 968.142c0.0496063,2.40118 -0.262205,4.85079 -0.976772,7.27678 -3.74292,12.7146 -17.087,19.9878 -29.8016,16.2449l0.0165354 -0.0578741 -494.333 -145.538c-10.8083,-2.33622 -18.9059,-11.9504 -18.9059,-23.4567l0 -968.142c-0.0496063,-2.40118 0.262205,-4.85079 0.976772,-7.27678 3.74292,-12.7146 17.087,-19.9878 29.8016,-16.2449l-0.0165354 0.0578741z"/>
  <path class="fil0" d="M1266.91 589.238l494.333 -145.538 -0.0165354 -0.0578741c12.7146,-3.74292 26.0587,3.53032 29.8016,16.2449 0.714567,2.42599 1.02638,4.87559 0.976772,7.27678l0 968.142c0,11.5063 -8.09764,21.1205 -18.9059,23.4567l-494.333 145.538 0.0165354 0.0578741c-12.7146,3.74292 -26.0587,-3.53032 -29.8016,-16.2449 -0.714567,-2.42599 -1.02638,-4.87559 -0.976772,-7.27678l0 -968.142c0,-11.5063 8.09764,-21.1205 18.9059,-23.4567zm477.095 -90.5505l-448.001 131.897 0 918.728 448.001 -131.897 0 -918.728z"/>
  <path class="fil0" d="M270.864 1218.18c-8.3315,3.44292 -14.0563,11.2323 -14.7874,20.2264 -1.46457,17.8725 16.5024,30.9449 33.0591,24.1595l44.3859 -18.2705c8.3315,-3.44292 14.0563,-11.2323 14.7874,-20.2264 1.46457,-17.8725 -16.5024,-30.9449 -33.0591,-24.1595l-44.3859 18.2705zm1454.78 -203.277c15.7028,-9.09095 16.1988,-31.4244 0.852757,-41.1638 -7.57914,-4.69134 -16.9169,-4.93111 -24.678,-0.505512l-41.6705 23.824c-15.7028,9.09095 -16.1988,31.4244 -0.852757,41.1638 7.57914,4.69134 16.9169,4.93111 24.678,0.505512l41.6705 -23.824zm-166.682 95.2973c15.7016,-9.09095 16.1988,-31.4244 0.852757,-41.1638 -7.57914,-4.69134 -16.9169,-4.93111 -24.678,-0.505512l-41.6693 23.824c-15.7028,9.09095 -16.1988,31.4244 -0.852757,41.1638 7.57914,4.69134 16.9169,4.93111 24.678,0.505512l41.6693 -23.824zm-166.68 95.2973c15.7016,-9.09095 16.1988,-31.4244 0.852757,-41.1638 -7.57914,-4.69134 -16.9169,-4.93111 -24.678,-0.505512l-41.6693 23.824c-15.7028,9.09095 -16.1988,31.4244 -0.852757,41.1638 7.57914,4.69134 16.9169,4.93111 24.678,0.505512l41.6693 -23.824zm-191.49 36.9862c8.06457,3.39922 17.0244,2.20748 23.9906,-3.05315 14.5701,-11.2665 11.6421,-33.8776 -5.2441,-41.1343l-44.1886 -18.7465c-8.06457,-3.39922 -17.0244,-2.20748 -23.9906,3.05315 -14.5701,11.2665 -11.6421,33.8776 5.2441,41.1343l44.1886 18.7465zm-176.753 -74.9847c8.06457,3.39922 17.0244,2.20748 23.9906,-3.05315 14.5701,-11.2665 11.6421,-33.8776 -5.2441,-41.1343l-44.1874 -18.7453c-8.06457,-3.39922 -17.0244,-2.20748 -23.9906,3.05315 -14.5701,11.2665 -11.6421,33.8776 5.2441,41.1343l44.1874 18.7453zm-176.752 -74.9823c8.06457,3.39922 17.0244,2.20748 23.9906,-3.05315 14.5701,-11.2665 11.6421,-33.8776 -5.2441,-41.1343l-44.1874 -18.7453c-8.06457,-3.39922 -17.0244,-2.20748 -23.9906,3.05315 -14.5701,11.2665 -11.6421,33.8776 5.2441,41.1343l44.1874 18.7453zm-158.675 5.6126c8.3315,-3.44292 14.0563,-11.2323 14.7874,-20.2264 1.46457,-17.8725 -16.5024,-30.9449 -33.0591,-24.1595l-44.387 18.2705c-8.3315,3.44292 -14.0563,11.2323 -14.7874,20.2264 -1.46457,17.8725 16.5024,30.9449 33.0591,24.1595l44.387 -18.2705zm-177.547 73.0831c8.3315,-3.44292 14.0563,-11.2323 14.7874,-20.2264 1.46457,-17.8725 -16.5024,-30.9449 -33.0591,-24.1595l-44.3859 18.2705c-8.3315,3.44292 -14.0563,11.2323 -14.7874,20.2264 -1.46457,17.8725 16.5024,30.9449 33.0591,24.1595l44.3859 -18.2705z"/>
  <g id="_460792160">
   <path id="_460791896" class="fil1" d="M1603.72 685.34c-11.015,-11.015 -24.0272,-19.8295 -38.3563,-25.7646 -13.8567,-5.73898 -29.1733,-8.90788 -45.3591,-8.90788 -16.187,0 -31.5024,3.1689 -45.3603,8.90788 -14.3291,5.93504 -27.3425,14.7508 -38.3551,25.7646 -11.015,11.015 -19.8307,24.0272 -25.7646,38.3551 -5.74016,13.8579 -8.90906,29.1733 -8.90906,45.3603 0,54.1288 65.4036,147.038 118.381,220.909 52.7847,-73.9005 118.396,-166.89 118.396,-220.909 0,-16.1847 -3.1689,-31.5012 -8.90788,-45.3591 -5.93504,-14.3291 -14.7496,-27.3414 -25.7646,-38.3563zm-20.1697 -70.0158c20.5181,8.49922 38.8677,20.8382 54.1075,36.078 15.2398,15.2398 27.5788,33.5894 36.078,54.1075 8.15434,19.689 12.6567,41.1603 12.6567,63.5457 0,70.3666 -73.6052,173.379 -130.877,253.532l-0.00590552 0.00826772 -7.98898 11.1898c-7.44449,10.4457 -4.65709,6.45945 -6.55394,9.12757 -1.67126,2.96103 -3.99922,5.6126 -6.94843,7.71969 -10.7858,7.70434 -25.7752,5.2063 -33.4796,-5.57953l14.439 -10.3134 -0.0413386 0.0153543 -14.3681 10.2236c-7.42323,-10.3913 -10.389,-14.5347 -12.2362,-17.1118 -0.441733,-0.517323 -0.865749,-1.05591 -1.26969,-1.61929l0.0188977 -0.0129921 -0.00944883 -0.0129921 -0.00826772 0.00590552 -0.16063 -0.22441 -0.100394 -0.131102 -0.0413386 -0.0531496 0.0011811 -0.0011811 -0.302362 -0.409843 0.0106299 -0.00708662 -0.00944883 -0.0129921 0.0614174 -0.0437008c-57.8032,-80.5359 -132.907,-185.191 -132.907,-256.289 0,-22.3878 4.50237,-43.8567 12.6579,-63.5469 8.49686,-20.5158 20.8382,-38.8666 36.078,-54.1063 15.2374,-15.2398 33.5894,-27.5788 54.1063,-36.078 19.6902,-8.15434 41.1603,-12.6567 63.5469,-12.6567 22.3855,0 43.8567,4.50118 63.5457,12.6567z"/>
   <path id="_460792472" class="fil1" d="M1520 685.439c21.7063,0 41.3611,8.8004 55.5874,23.0268 14.2252,14.2276 23.0268,33.8799 23.0268,55.5863 0,21.7063 -8.8004,41.3611 -23.0268,55.5874 -14.2276,14.2252 -33.8811,23.0268 -55.5874,23.0268 -21.7051,0 -41.3599,-8.80158 -55.5874,-23.0268 -14.2252,-14.2276 -23.0268,-33.8823 -23.0268,-55.5874 0,-21.7063 8.80158,-41.3587 23.0268,-55.5863 14.2264,-14.2264 33.8811,-23.0268 55.5874,-23.0268zm21.6496 56.9646c-5.53819,-5.53819 -13.1941,-8.96457 -21.6496,-8.96457 -8.45552,0 -16.1114,3.42638 -21.6496,8.96457 -5.53701,5.53819 -8.96457,13.1929 -8.96457,21.6484 0,8.4567 3.42756,16.1114 8.96457,21.6496 5.53819,5.53701 13.1929,8.96457 21.6496,8.96457 8.45552,0 16.1114,-3.42756 21.6496,-8.96457 5.53819,-5.53819 8.96457,-13.1941 8.96457,-21.6496 0,-8.45552 -3.42756,-16.1102 -8.96457,-21.6484z"/>
  </g>
 </g>
 <rect class="fil2" width="2048" height="2048"/>
</svg>
